# xmcd
# 
# Track frame offsets:
#     150
#     19562
#     39464
#     59552
#     75166
#     94571
#     114473
#     134561
# 
# Disc length: 2000
# 
# Revision: 0
# Processed by: cddbd v1.5.2PL0 Copyright (c) Steve Scherf et al.
# Submitted via: fre:ac v1.0.17
# 
DISCID=5a07ce08
DTITLE=Rev. from DVL - REAL -リアル- [Web盤]
DYEAR=2014
DGENRE=JPop
TTITLE0=REAL -リアル-
TTITLE1=恋色パッション
TTITLE2=LiVE and Peace
TTITLE3=外環状線
TTITLE4=REAL -リアル- <instrumental>
TTITLE5=恋色パッション <instrumental>
TTITLE6=LiVE and Peace <instrumental>
TTITLE7=外環状線 <instrumental>
EXTD=
EXTT0=
EXTT1=
EXTT2=
EXTT3=
EXTT4=
EXTT5=
EXTT6=
EXTT7=
PLAYORDER=
